<svg enable-background="new 0 0 141.7 141.7" id="google-drive" viewBox="0 0 141.7 141.7"
    xmlns="http://www.w3.org/2000/svg">
    <path d="M25.8,104.7l4.7,8.1c1,1.7,2.4,3,4,4l16.7-29H17.8c0,1.9,0.5,3.8,1.5,5.5L25.8,104.7z"
        fill="#0066da"></path>
    <path d="M107.2,116.8c1.6-1,3-2.3,4-4l1.9-3.3l9.3-16.1c1-1.7,1.5-3.6,1.5-5.5H90.5l7.1,14L107.2,116.8z"
        fill="#ea4335"></path>
    <path d="M70.9,53.8l16.7-29c-1.6-1-3.5-1.5-5.5-1.5H59.6c-1.9,0-3.8,0.5-5.5,1.5L70.9,53.8z"
        fill="#00832d"></path>
    <path d="M90.5,87.9H51.2l-16.7,29c1.6,1,3.5,1.5,5.5,1.5h61.8c1.9,0,3.8-0.5,5.5-1.5L90.5,87.9z"
        fill="#2684fc"></path>
    <path d="M107.1,55.7L91.6,28.9c-1-1.7-2.4-3-4-4l-16.7,29l19.6,34.1h33.4c0-1.9-0.5-3.8-1.5-5.5L107.1,55.7z"
        fill="#ffba00"></path>
    <path d="M19.2,82.4c-1,1.7-1.5,3.6-1.5,5.5h33.4l19.6-34.1l-16.7-29c-1.6,1-3,2.3-4,4L34.6,55.7L19.2,82.4z"
        fill="#00ac47"></path>
</svg>
