<svg id="offline" viewBox="0 0 24 24" xmlns="http://www.w3.org/2000/svg">
    <path
        d="M20.7 7.4c-.3-.3-.7-.4-1.1-.2-.5.2-.7.8-.5 1.3.4.8.6 1.6.7 2.5h-4c-.6 0-1 .4-1 1 0 2.6-1 5.1-2.8 7-.4-.4-.7-.8-1-1.2-.3-.4-.9-.6-1.4-.2-.4.3-.5.9-.2 1.4.2.3.5.6.7.8H10c-.4-.1-.8-.2-1.2-.4-.5-.2-1.1 0-1.3.5-.2.5 0 1.1.5 1.3 1 .5 2.1.7 3.2.8H13.1c2.8-.3 5.3-1.8 6.9-3.9l.1-.1c.1-.1.1-.2.2-.3 1.1-1.6 1.8-3.6 1.8-5.7 0-1.5-.3-2.9-.9-4.2-.2-.2-.4-.3-.5-.4zm-2.1 9.1c-.1.1-.1.2-.2.3l-.1.1c-1.1 1.4-2.6 2.4-4.3 2.8 1.6-1.9 2.6-4.2 2.8-6.7h3.1c-.2 1.3-.6 2.5-1.3 3.5zM4.3 18.3l-1 1c-.4.4-.4 1 0 1.4.2.2.4.3.7.3s.5-.1.7-.3L9.4 16l3.3-3.3 6.4-6.4 1.6-1.6c.4-.4.4-1 0-1.4-.4-.4-1-.4-1.4 0l-1 1c-1.5-1.3-3.4-2-5.4-2.2-.6-.1-1.2-.1-1.8-.1C5.9 2.5 2 6.8 2 12c0 2.3.8 4.6 2.3 6.3zm1.4-1.4c-.9-1.1-1.4-2.5-1.6-3.9h3.1c.1.7.2 1.4.4 2l-1.9 1.9zm3.5-3.5V13h.4l-.4.4zm5.4-8.9c.1 0 .3.1.4.1l.6.3c.2.1.3.1.4.2l.9.6-1.2 1.2c-.5-.9-1-1.8-1.7-2.6.2 0 .4.1.6.2zM12 5c.9 1 1.7 2.1 2.2 3.4L11.6 11H9.2c.2-2.2 1.2-4.3 2.8-6zm-7.9 5.5c0-.1 0-.2.1-.3 0-.2.1-.3.1-.5 0-.1.1-.2.1-.3 0-.1.1-.3.1-.4 0-.1.1-.2.1-.2.1-.1.1-.3.2-.4 0-.1.1-.2.1-.2.1-.1.2-.3.3-.4 0-.1.1-.1.1-.2.1-.1.2-.3.3-.4 0-.1.1-.1.1-.2.1-.1.2-.3.3-.4 0-.1.1-.1.1-.1l.4-.4.1-.1c.2-.1.4-.2.5-.3l.1-.1c.1-.1.3-.2.4-.3 0 0 .1-.1.2-.1.2-.1.4-.2.5-.3.1 0 .1-.1.2-.1.2-.1.3-.1.5-.2.1 0 .1 0 .2-.1.2-.1.3-.1.5-.2.1 0 .2 0 .2-.1h.1c-1.6 2-2.6 4.3-2.8 6.8H4.1v-.5z"></path>
</svg>
